<svg width="177" height="177" viewBox="0 0 177 177" fill="none" xmlns="http://www.w3.org/2000/svg">
<circle cx="88.5" cy="88.5" r="88.5" fill="#0085BE" fill-opacity="0.7"/>
<path d="M122.96 121H99.824C99.056 121 98.672 120.616 98.672 119.848V114.952C98.672 114.184 99.056 113.8 99.824 113.8H107.216V90.28H71.504V113.8H78.896C79.728 113.8 80.144 114.184 80.144 114.952V119.848C80.144 120.616 79.728 121 78.896 121H55.856C55.024 121 54.608 120.616 54.608 119.848V114.952C54.608 114.184 55.024 113.8 55.856 113.8H63.152V59.272H55.856C55.024 59.272 54.608 58.888 54.608 58.12V53.224C54.608 52.456 55.024 52.072 55.856 52.072H78.896C79.728 52.072 80.144 52.456 80.144 53.224V58.12C80.144 58.888 79.728 59.272 78.896 59.272H71.504V83.272H107.216V59.272H99.824C99.056 59.272 98.672 58.888 98.672 58.12V53.224C98.672 52.456 99.056 52.072 99.824 52.072H122.96C123.728 52.072 124.112 52.456 124.112 53.224V58.12C124.112 58.888 123.728 59.272 122.96 59.272H115.568V113.8H122.96C123.728 113.8 124.112 114.184 124.112 114.952V119.848C124.112 120.616 123.728 121 122.96 121Z" fill="white"/>
</svg>
